<svg xmlns="http://www.w3.org/2000/svg" xmlns:xlink="http://www.w3.org/1999/xlink" width="500" zoomAndPan="magnify" viewBox="0 0 375 374.999991" height="500" preserveAspectRatio="xMidYMid meet" version="1.0"><defs><g/><clipPath id="eace5168e0"><path d="M 92.335938 174.921875 L 152.335938 174.921875 L 152.335938 204.921875 L 92.335938 204.921875 Z M 92.335938 174.921875 " clip-rule="nonzero"/></clipPath><clipPath id="7d49d2eaca"><path d="M 243.527344 145.078125 L 273.527344 145.078125 L 273.527344 175 L 243.527344 175 Z M 243.527344 145.078125 " clip-rule="nonzero"/></clipPath><clipPath id="ca2f31052b"><rect x="0" width="29" y="0" height="71"/></clipPath><clipPath id="1708c0811f"><rect x="0" width="108" y="0" height="71"/></clipPath><clipPath id="6c6acb0f88"><rect x="0" width="51" y="0" height="71"/></clipPath></defs><rect x="-37.5" width="450" fill="#ffffff" y="-37.499999" height="449.999989" fill-opacity="1"/><rect x="-37.5" width="450" fill="#000000" y="-37.499999" height="449.999989" fill-opacity="1"/><g clip-path="url(#eace5168e0)"><path fill="#01acb4" d="M 98.050781 189.957031 C 98.050781 184.8125 102.230469 180.632812 107.371094 180.632812 L 119.402344 180.632812 L 119.402344 174.921875 L 107.371094 174.921875 C 99.074219 174.921875 92.335938 181.65625 92.335938 189.957031 C 92.335938 198.253906 99.074219 204.992188 107.371094 204.992188 L 119.402344 204.992188 L 119.402344 199.277344 L 107.371094 199.277344 C 102.230469 199.277344 98.050781 195.097656 98.050781 189.957031 Z M 110.378906 192.964844 L 134.4375 192.964844 L 134.4375 186.949219 L 110.378906 186.949219 Z M 137.441406 174.921875 L 125.414062 174.921875 L 125.414062 180.632812 L 137.441406 180.632812 C 142.585938 180.632812 146.765625 184.8125 146.765625 189.957031 C 146.765625 195.097656 142.585938 199.277344 137.441406 199.277344 L 125.414062 199.277344 L 125.414062 204.992188 L 137.441406 204.992188 C 145.742188 204.992188 152.476562 198.253906 152.476562 189.957031 C 152.476562 181.65625 145.742188 174.921875 137.441406 174.921875 Z M 137.441406 174.921875 " fill-opacity="1" fill-rule="nonzero"/></g><g clip-path="url(#7d49d2eaca)"><path fill="#01acb4" d="M 258.445312 174.914062 C 258.445312 166.703125 251.734375 159.996094 243.527344 159.996094 C 251.734375 159.996094 258.445312 153.285156 258.445312 145.078125 C 258.445312 153.285156 265.15625 159.996094 273.363281 159.996094 C 265.15625 159.996094 258.445312 166.703125 258.445312 174.914062 Z M 258.445312 174.914062 " fill-opacity="1" fill-rule="nonzero"/></g><g transform="matrix(1, 0, 0, 1, 62, 152)"><g clip-path="url(#ca2f31052b)"><g fill="#ffffff" fill-opacity="1"><g transform="translate(0.884659, 50.713789)"><g><path d="M 18.328125 -21.078125 C 16.492188 -21.078125 14.914062 -20.398438 13.59375 -19.046875 C 12.269531 -17.691406 11.609375 -16.054688 11.609375 -14.140625 C 11.609375 -12.203125 12.269531 -10.550781 13.59375 -9.1875 C 14.914062 -7.832031 16.492188 -7.15625 18.328125 -7.15625 C 19.210938 -7.15625 20.046875 -7.265625 20.828125 -7.484375 C 21.617188 -7.703125 22.195312 -7.921875 22.5625 -8.140625 L 23.0625 -8.484375 L 26.375 -1.703125 C 26.113281 -1.523438 25.753906 -1.296875 25.296875 -1.015625 C 24.835938 -0.742188 23.789062 -0.367188 22.15625 0.109375 C 20.519531 0.585938 18.769531 0.828125 16.90625 0.828125 C 12.75 0.828125 9.101562 -0.628906 5.96875 -3.546875 C 2.832031 -6.460938 1.265625 -9.957031 1.265625 -14.03125 C 1.265625 -18.144531 2.832031 -21.675781 5.96875 -24.625 C 9.101562 -27.582031 12.75 -29.0625 16.90625 -29.0625 C 18.769531 -29.0625 20.488281 -28.84375 22.0625 -28.40625 C 23.644531 -27.96875 24.769531 -27.523438 25.4375 -27.078125 L 26.375 -26.421875 L 23.0625 -19.765625 C 21.851562 -20.640625 20.273438 -21.078125 18.328125 -21.078125 Z M 18.328125 -21.078125 "/></g></g></g></g></g><g transform="matrix(1, 0, 0, 1, 154, 152)"><g clip-path="url(#1708c0811f)"><g fill="#ffffff" fill-opacity="1"><g transform="translate(0.885483, 50.713789)"><g><path d="M 3.296875 0 L 3.296875 -28.234375 L 13.046875 -28.234375 L 13.046875 -25.265625 L 13.15625 -25.265625 C 15.6875 -27.796875 18.382812 -29.0625 21.25 -29.0625 C 22.644531 -29.0625 24.03125 -28.878906 25.40625 -28.515625 C 26.78125 -28.148438 28.097656 -27.582031 29.359375 -26.8125 C 30.628906 -26.039062 31.660156 -24.945312 32.453125 -23.53125 C 33.242188 -22.113281 33.640625 -20.472656 33.640625 -18.609375 L 33.640625 0 L 23.890625 0 L 23.890625 -15.96875 C 23.890625 -17.4375 23.421875 -18.71875 22.484375 -19.8125 C 21.546875 -20.914062 20.328125 -21.46875 18.828125 -21.46875 C 17.359375 -21.46875 16.023438 -20.898438 14.828125 -19.765625 C 13.640625 -18.628906 13.046875 -17.363281 13.046875 -15.96875 L 13.046875 0 Z M 3.296875 0 "/></g></g></g><g fill="#ffffff" fill-opacity="1"><g transform="translate(37.27239, 50.713789)"><g><path d="M 3.296875 0 L 3.296875 -28.234375 L 13.046875 -28.234375 L 13.046875 -25.265625 L 13.15625 -25.265625 C 15.6875 -27.796875 18.382812 -29.0625 21.25 -29.0625 C 22.644531 -29.0625 24.03125 -28.878906 25.40625 -28.515625 C 26.78125 -28.148438 28.097656 -27.582031 29.359375 -26.8125 C 30.628906 -26.039062 31.660156 -24.945312 32.453125 -23.53125 C 33.242188 -22.113281 33.640625 -20.472656 33.640625 -18.609375 L 33.640625 0 L 23.890625 0 L 23.890625 -15.96875 C 23.890625 -17.4375 23.421875 -18.71875 22.484375 -19.8125 C 21.546875 -20.914062 20.328125 -21.46875 18.828125 -21.46875 C 17.359375 -21.46875 16.023438 -20.898438 14.828125 -19.765625 C 13.640625 -18.628906 13.046875 -17.363281 13.046875 -15.96875 L 13.046875 0 Z M 3.296875 0 "/></g></g></g><g fill="#ffffff" fill-opacity="1"><g transform="translate(73.659298, 50.713789)"><g><path d="M 31.875 -12.765625 L 11.390625 -12.765625 C 11.390625 -10.785156 12.03125 -9.316406 13.3125 -8.359375 C 14.601562 -7.410156 16 -6.9375 17.5 -6.9375 C 19.082031 -6.9375 20.332031 -7.144531 21.25 -7.5625 C 22.164062 -7.988281 23.210938 -8.828125 24.390625 -10.078125 L 31.4375 -6.546875 C 28.5 -1.628906 23.617188 0.828125 16.796875 0.828125 C 12.535156 0.828125 8.878906 -0.628906 5.828125 -3.546875 C 2.785156 -6.460938 1.265625 -9.972656 1.265625 -14.078125 C 1.265625 -18.191406 2.785156 -21.71875 5.828125 -24.65625 C 8.878906 -27.59375 12.535156 -29.0625 16.796875 -29.0625 C 21.265625 -29.0625 24.898438 -27.765625 27.703125 -25.171875 C 30.515625 -22.585938 31.921875 -18.894531 31.921875 -14.09375 C 31.921875 -13.425781 31.90625 -12.984375 31.875 -12.765625 Z M 11.671875 -18.171875 L 22.40625 -18.171875 C 22.1875 -19.640625 21.609375 -20.765625 20.671875 -21.546875 C 19.734375 -22.335938 18.53125 -22.734375 17.0625 -22.734375 C 15.445312 -22.734375 14.160156 -22.3125 13.203125 -21.46875 C 12.253906 -20.625 11.742188 -19.523438 11.671875 -18.171875 Z M 11.671875 -18.171875 "/></g></g></g></g></g><g transform="matrix(1, 0, 0, 1, 258, 152)"><g clip-path="url(#6c6acb0f88)"><g fill="#01acb4" fill-opacity="1"><g transform="translate(0.449753, 50.713789)"><g><path d="M 18.328125 -21.078125 C 16.492188 -21.078125 14.914062 -20.398438 13.59375 -19.046875 C 12.269531 -17.691406 11.609375 -16.054688 11.609375 -14.140625 C 11.609375 -12.203125 12.269531 -10.550781 13.59375 -9.1875 C 14.914062 -7.832031 16.492188 -7.15625 18.328125 -7.15625 C 19.210938 -7.15625 20.046875 -7.265625 20.828125 -7.484375 C 21.617188 -7.703125 22.195312 -7.921875 22.5625 -8.140625 L 23.0625 -8.484375 L 26.375 -1.703125 C 26.113281 -1.523438 25.753906 -1.296875 25.296875 -1.015625 C 24.835938 -0.742188 23.789062 -0.367188 22.15625 0.109375 C 20.519531 0.585938 18.769531 0.828125 16.90625 0.828125 C 12.75 0.828125 9.101562 -0.628906 5.96875 -3.546875 C 2.832031 -6.460938 1.265625 -9.957031 1.265625 -14.03125 C 1.265625 -18.144531 2.832031 -21.675781 5.96875 -24.625 C 9.101562 -27.582031 12.75 -29.0625 16.90625 -29.0625 C 18.769531 -29.0625 20.488281 -28.84375 22.0625 -28.40625 C 23.644531 -27.96875 24.769531 -27.523438 25.4375 -27.078125 L 26.375 -26.421875 L 23.0625 -19.765625 C 21.851562 -20.640625 20.273438 -21.078125 18.328125 -21.078125 Z M 18.328125 -21.078125 "/></g></g></g><g fill="#01acb4" fill-opacity="1"><g transform="translate(27.478456, 50.713789)"><g><path d="M 4.953125 -28.234375 L 4.953125 -38.75 L 14.703125 -38.75 L 14.703125 -28.234375 L 20.640625 -28.234375 L 20.640625 -20.8125 L 14.703125 -20.8125 L 14.703125 -11.828125 C 14.703125 -9.222656 15.4375 -7.921875 16.90625 -7.921875 C 17.269531 -7.921875 17.648438 -7.992188 18.046875 -8.140625 C 18.453125 -8.285156 18.765625 -8.4375 18.984375 -8.59375 L 19.328125 -8.8125 L 21.75 -0.9375 C 19.65625 0.238281 17.269531 0.828125 14.59375 0.828125 C 12.75 0.828125 11.164062 0.507812 9.84375 -0.125 C 8.53125 -0.769531 7.53125 -1.632812 6.84375 -2.71875 C 6.164062 -3.800781 5.679688 -4.9375 5.390625 -6.125 C 5.097656 -7.320312 4.953125 -8.601562 4.953125 -9.96875 L 4.953125 -20.8125 L 0.875 -20.8125 L 0.875 -28.234375 Z M 4.953125 -28.234375 "/></g></g></g></g></g></svg>